<svg width="64" height="64" viewBox="0 0 64 64" xmlns="http://www.w3.org/2000/svg">
  <defs>
    <linearGradient id="consultingGradient" x1="0%" y1="0%" x2="100%" y2="100%">
      <stop offset="0%" style="stop-color:#0891B2;stop-opacity:1" />
      <stop offset="100%" style="stop-color:#0E7490;stop-opacity:1" />
    </linearGradient>
  </defs>
  
  <!-- Business people -->
  <g transform="translate(20,24)">
    <!-- Person 1 -->
    <circle cx="0" cy="0" r="6" fill="url(#consultingGradient)"/>
    <rect x="-4" y="6" width="8" height="12" rx="2" fill="url(#consultingGradient)"/>
    
    <!-- Person 2 -->
    <circle cx="24" cy="0" r="6" fill="url(#consultingGradient)"/>
    <rect x="20" y="6" width="8" height="12" rx="2" fill="url(#consultingGradient)"/>
  </g>
  
  <!-- Meeting table -->
  <ellipse cx="32" cy="44" rx="20" ry="8" fill="#374151"/>
  
  <!-- Documents on table -->
  <rect x="18" y="40" width="8" height="6" rx="0.5" fill="#FFF" stroke="#D1D5DB" stroke-width="1"/>
  <rect x="38" y="40" width="8" height="6" rx="0.5" fill="#FFF" stroke="#D1D5DB" stroke-width="1"/>
  
  <!-- Chart/presentation -->
  <rect x="28" y="36" width="8" height="6" rx="0.5" fill="#FFF" stroke="#D1D5DB" stroke-width="1"/>
  <rect x="29" y="40" width="1.5" height="4" fill="#10B981"/>
  <rect x="31" y="39" width="1.5" height="5" fill="#3B82F6"/>
  <rect x="33" y="38" width="1.5" height="6" fill="#F59E0B"/>
  <rect x="35" y="37" width="1.5" height="7" fill="#EF4444"/>
  
  <!-- Lightbulb (ideas) -->
  <g transform="translate(48,16)">
    <circle cx="0" cy="0" r="4" fill="#F59E0B" opacity="0.8"/>
    <rect x="-1" y="4" width="2" height="3" rx="1" fill="#6B7280"/>
    <line x1="-6" y1="-2" x2="-4" y2="-1" stroke="#F59E0B" stroke-width="1"/>
    <line x1="4" y1="-1" x2="6" y2="-2" stroke="#F59E0B" stroke-width="1"/>
    <line x1="-2" y1="-6" x2="-1" y2="-4" stroke="#F59E0B" stroke-width="1"/>
    <line x1="1" y1="-4" x2="2" y2="-6" stroke="#F59E0B" stroke-width="1"/>
  </g>
  
  <!-- Strategy arrows -->
  <path d="M16 32 Q 32 28 48 32" stroke="url(#consultingGradient)" stroke-width="2" fill="none" marker-end="url(#arrowhead2)" stroke-dasharray="4,4">
    <animate attributeName="stroke-dashoffset" values="0;8" dur="2s" repeatCount="indefinite"/>
  </path>
  
  <!-- Handshake -->
  <g transform="translate(32,52)">
    <path d="M-8 0 L-4 -2 L0 0 L4 -2 L8 0 L4 2 L0 0 L-4 2 Z" fill="#0891B2"/>
    <circle cx="-6" cy="-1" r="1" fill="#FFF"/>
    <circle cx="6" cy="-1" r="1" fill="#FFF"/>
  </g>
  
  <defs>
    <marker id="arrowhead2" markerWidth="10" markerHeight="7" refX="9" refY="3.5" orient="auto">
      <polygon points="0 0, 10 3.5, 0 7" fill="url(#consultingGradient)" />
    </marker>
  </defs>
</svg>