<svg width="64" height="64" viewBox="0 0 64 64" xmlns="http://www.w3.org/2000/svg">
  <defs>
    <linearGradient id="datacenterGradient" x1="0%" y1="0%" x2="100%" y2="100%">
      <stop offset="0%" style="stop-color:#059669;stop-opacity:1" />
      <stop offset="100%" style="stop-color:#0891B2;stop-opacity:1" />
    </linearGradient>
    <linearGradient id="rackGradient" x1="0%" y1="0%" x2="100%" y2="100%">
      <stop offset="0%" style="stop-color:#374151;stop-opacity:1" />
      <stop offset="100%" style="stop-color:#6B7280;stop-opacity:1" />
    </linearGradient>
  </defs>
  
  <!-- Data center building -->
  <rect x="8" y="12" width="48" height="40" rx="2" fill="url(#datacenterGradient)" stroke="#1F2937" stroke-width="1"/>
  
  <!-- Server racks -->
  <rect x="12" y="18" width="8" height="28" rx="1" fill="url(#rackGradient)"/>
  <rect x="24" y="18" width="8" height="28" rx="1" fill="url(#rackGradient)"/>
  <rect x="36" y="18" width="8" height="28" rx="1" fill="url(#rackGradient)"/>
  <rect x="48" y="18" width="4" height="28" rx="1" fill="url(#rackGradient)"/>
  
  <!-- Server indicators -->
  <rect x="13" y="20" width="6" height="2" rx="0.5" fill="#10B981"/>
  <rect x="13" y="24" width="6" height="2" rx="0.5" fill="#10B981"/>
  <rect x="13" y="28" width="6" height="2" rx="0.5" fill="#EF4444"/>
  <rect x="13" y="32" width="6" height="2" rx="0.5" fill="#10B981"/>
  
  <rect x="25" y="20" width="6" height="2" rx="0.5" fill="#10B981"/>
  <rect x="25" y="24" width="6" height="2" rx="0.5" fill="#F59E0B"/>
  <rect x="25" y="28" width="6" height="2" rx="0.5" fill="#10B981"/>
  <rect x="25" y="32" width="6" height="2" rx="0.5" fill="#10B981"/>
  
  <rect x="37" y="20" width="6" height="2" rx="0.5" fill="#10B981"/>
  <rect x="37" y="24" width="6" height="2" rx="0.5" fill="#10B981"/>
  <rect x="37" y="28" width="6" height="2" rx="0.5" fill="#10B981"/>
  <rect x="37" y="32" width="6" height="2" rx="0.5" fill="#10B981"/>
  
  <!-- Cooling system -->
  <rect x="10" y="48" width="44" height="2" rx="1" fill="#3B82F6" opacity="0.7"/>
  
  <!-- Power indicators -->
  <circle cx="14" cy="15" r="1" fill="#10B981">
    <animate attributeName="opacity" values="1;0.3;1" dur="1.5s" repeatCount="indefinite"/>
  </circle>
  <circle cx="32" cy="15" r="1" fill="#10B981">
    <animate attributeName="opacity" values="0.3;1;0.3" dur="1.5s" repeatCount="indefinite"/>
  </circle>
  <circle cx="50" cy="15" r="1" fill="#10B981">
    <animate attributeName="opacity" values="1;0.3;1" dur="2s" repeatCount="indefinite"/>
  </circle>
</svg>