<svg width="64" height="64" viewBox="0 0 64 64" xmlns="http://www.w3.org/2000/svg">
  <defs>
    <linearGradient id="devopsGradient" x1="0%" y1="0%" x2="100%" y2="100%">
      <stop offset="0%" style="stop-color:#F59E0B;stop-opacity:1" />
      <stop offset="100%" style="stop-color:#D97706;stop-opacity:1" />
    </linearGradient>
  </defs>
  
  <!-- DevOps infinity symbol -->
  <g transform="translate(32,32)">
    <path d="M-16,-8 C-16,-16 -8,-16 0,-8 C8,-16 16,-16 16,-8 C16,0 8,0 0,-8 C-8,0 -16,0 -16,-8 M-16,8 C-16,0 -8,0 0,8 C8,0 16,0 16,8 C16,16 8,16 0,8 C-8,16 -16,16 -16,8" fill="url(#devopsGradient)" stroke="#92400E" stroke-width="2"/>
  </g>
  
  <!-- Dev side (left) -->
  <g transform="translate(16,32)">
    <rect x="-6" y="-6" width="12" height="12" rx="2" fill="#1F2937"/>
    <rect x="-4" y="-4" width="8" height="2" rx="0.5" fill="#10B981"/>
    <rect x="-4" y="-1" width="6" height="1" rx="0.25" fill="#6B7280"/>
    <rect x="-4" y="1" width="7" height="1" rx="0.25" fill="#6B7280"/>
    <rect x="-4" y="3" width="5" height="1" rx="0.25" fill="#6B7280"/>
  </g>
  
  <!-- Ops side (right) -->
  <g transform="translate(48,32)">
    <circle r="8" fill="#1F2937" stroke="#374151" stroke-width="1"/>
    <circle r="5" fill="none" stroke="#10B981" stroke-width="2"/>
    <circle r="2" fill="#10B981"/>
    <rect x="-1" y="-10" width="2" height="4" rx="1" fill="#EF4444">
      <animate attributeName="opacity" values="1;0.3;1" dur="1s" repeatCount="indefinite"/>
    </rect>
  </g>
  
  <!-- CI/CD Pipeline -->
  <g transform="translate(32,16)">
    <rect x="-12" y="-2" width="24" height="4" rx="2" fill="#3B82F6" opacity="0.7"/>
    <circle cx="-8" cy="0" r="2" fill="#10B981"/>
    <circle cx="0" cy="0" r="2" fill="#F59E0B"/>
    <circle cx="8" cy="0" r="2" fill="#10B981"/>
  </g>
  
  <!-- Automation arrows -->
  <path d="M20 28 L28 24" stroke="#10B981" stroke-width="2" marker-end="url(#arrowhead)" opacity="0.8"/>
  <path d="M36 24 L44 28" stroke="#10B981" stroke-width="2" marker-end="url(#arrowhead)" opacity="0.8"/>
  
  <defs>
    <marker id="arrowhead" markerWidth="10" markerHeight="7" refX="9" refY="3.5" orient="auto">
      <polygon points="0 0, 10 3.5, 0 7" fill="#10B981" />
    </marker>
  </defs>
</svg>