<svg width="64" height="64" viewBox="0 0 64 64" xmlns="http://www.w3.org/2000/svg">
  <defs>
    <linearGradient id="socGradient" x1="0%" y1="0%" x2="100%" y2="100%">
      <stop offset="0%" style="stop-color:#DC2626;stop-opacity:1" />
      <stop offset="100%" style="stop-color:#EF4444;stop-opacity:1" />
    </linearGradient>
    <linearGradient id="shieldGradient" x1="0%" y1="0%" x2="100%" y2="100%">
      <stop offset="0%" style="stop-color:#059669;stop-opacity:1" />
      <stop offset="100%" style="stop-color:#10B981;stop-opacity:1" />
    </linearGradient>
  </defs>
  
  <!-- SOC Shield -->
  <path d="M32 8 L48 16 L48 32 C48 44 32 56 32 56 C32 56 16 44 16 32 L16 16 Z" fill="url(#shieldGradient)" stroke="#065F46" stroke-width="1"/>
  
  <!-- Monitor screens -->
  <rect x="20" y="20" width="8" height="6" rx="1" fill="#1F2937" stroke="#374151" stroke-width="0.5"/>
  <rect x="36" y="20" width="8" height="6" rx="1" fill="#1F2937" stroke="#374151" stroke-width="0.5"/>
  <rect x="28" y="32" width="8" height="6" rx="1" fill="#1F2937" stroke="#374151" stroke-width="0.5"/>
  
  <!-- Alert indicators -->
  <circle cx="22" cy="22" r="1" fill="#EF4444">
    <animate attributeName="opacity" values="1;0.3;1" dur="1s" repeatCount="indefinite"/>
  </circle>
  <circle cx="26" cy="22" r="1" fill="#10B981"/>
  <circle cx="38" cy="22" r="1" fill="#F59E0B"/>
  <circle cx="42" cy="22" r="1" fill="#10B981"/>
  <circle cx="30" cy="34" r="1" fill="#10B981"/>
  <circle cx="34" cy="34" r="1" fill="#10B981"/>
  
  <!-- Security radar sweep -->
  <g transform="translate(32,32)">
    <circle r="12" fill="none" stroke="url(#socGradient)" stroke-width="0.5" opacity="0.3"/>
    <circle r="8" fill="none" stroke="url(#socGradient)" stroke-width="0.5" opacity="0.5"/>
    <circle r="4" fill="none" stroke="url(#socGradient)" stroke-width="0.5" opacity="0.7"/>
    <line x1="0" y1="0" x2="0" y2="-12" stroke="url(#socGradient)" stroke-width="1" opacity="0.8">
      <animateTransform attributeName="transform" attributeType="XML" type="rotate" from="0" to="360" dur="3s" repeatCount="indefinite"/>
    </line>
  </g>
  
  <!-- Lock icon -->
  <rect x="28" y="14" width="8" height="6" rx="1" fill="url(#shieldGradient)"/>
  <circle cx="32" cy="16" r="2" fill="none" stroke="#065F46" stroke-width="1"/>
</svg>