<svg width="64" height="64" viewBox="0 0 64 64" xmlns="http://www.w3.org/2000/svg">
  <defs>
    <linearGradient id="softwareGradient" x1="0%" y1="0%" x2="100%" y2="100%">
      <stop offset="0%" style="stop-color:#EC4899;stop-opacity:1" />
      <stop offset="100%" style="stop-color:#DB2777;stop-opacity:1" />
    </linearGradient>
  </defs>
  
  <!-- Computer screen -->
  <rect x="12" y="16" width="40" height="28" rx="2" fill="#1F2937" stroke="#374151" stroke-width="2"/>
  <rect x="14" y="18" width="36" height="24" rx="1" fill="#000"/>
  
  <!-- Code editor interface -->
  <rect x="14" y="18" width="36" height="4" fill="#374151"/>
  <circle cx="17" cy="20" r="1" fill="#EF4444"/>
  <circle cx="20" cy="20" r="1" fill="#F59E0B"/>
  <circle cx="23" cy="20" r="1" fill="#10B981"/>
  
  <!-- Code lines -->
  <rect x="16" y="25" width="8" height="1" rx="0.5" fill="url(#softwareGradient)"/>
  <rect x="18" y="27" width="12" height="1" rx="0.5" fill="#10B981"/>
  <rect x="16" y="29" width="6" height="1" rx="0.5" fill="#3B82F6"/>
  <rect x="18" y="31" width="16" height="1" rx="0.5" fill="#F59E0B"/>
  <rect x="16" y="33" width="10" height="1" rx="0.5" fill="url(#softwareGradient)"/>
  <rect x="18" y="35" width="14" height="1" rx="0.5" fill="#10B981"/>
  <rect x="16" y="37" width="8" height="1" rx="0.5" fill="#3B82F6"/>
  
  <!-- Cursor -->
  <rect x="24" y="35" width="1" height="1" fill="#FFF">
    <animate attributeName="opacity" values="1;0;1" dur="1s" repeatCount="indefinite"/>
  </rect>
  
  <!-- Mobile devices -->
  <rect x="8" y="28" width="6" height="10" rx="1" fill="url(#softwareGradient)" stroke="#BE185D" stroke-width="1"/>
  <rect x="9" y="29" width="4" height="7" rx="0.5" fill="#000"/>
  <circle cx="11" cy="37" r="0.5" fill="#FFF"/>
  
  <rect x="50" y="28" width="6" height="10" rx="1" fill="url(#softwareGradient)" stroke="#BE185D" stroke-width="1"/>
  <rect x="51" y="29" width="4" height="7" rx="0.5" fill="#000"/>
  <circle cx="53" cy="37" r="0.5" fill="#FFF"/>
  
  <!-- Database -->
  <g transform="translate(32,50)">
    <ellipse cx="0" cy="0" rx="12" ry="3" fill="#374151"/>
    <rect x="-12" y="0" width="24" height="6" fill="#374151"/>
    <ellipse cx="0" cy="6" rx="12" ry="3" fill="#4B5563"/>
    <ellipse cx="0" cy="2" rx="12" ry="3" fill="#6B7280"/>
  </g>
  
  <!-- Connection lines -->
  <line x1="32" y1="44" x2="32" y2="47" stroke="#6B7280" stroke-width="2"/>
  <line x1="11" y1="28" x2="20" y2="36" stroke="#6B7280" stroke-width="1"/>
  <line x1="53" y1="28" x2="44" y2="36" stroke="#6B7280" stroke-width="1"/>
</svg>